<?xml version="1.0" encoding="utf-8" ?>
<svg baseProfile="full" height="100%" version="1.1" viewBox="0,0,1000,120" width="100%" xmlns="http://www.w3.org/2000/svg" xmlns:ev="http://www.w3.org/2001/xml-events" xmlns:xlink="http://www.w3.org/1999/xlink"><defs /><rect fill="white" height="120" width="1000" x="0" y="0" /><path d="M0,0 M398.8639221191406,45.68988800048828 L398.8761901855469,45.65113067626953 L398.90411376953125,45.661338806152344 L398.948486328125,45.826866149902344 L398.9819030761719,46.265987396240234 L398.9791259765625,47.087646484375 L398.87939453125,48.315181732177734 L398.6565246582031,49.941139221191406 L398.3305969238281,51.95587158203125 L397.9434814453125,54.327693939208984 L397.51300048828125,56.997352600097656 L397.06884765625,59.89359664916992 L396.6275329589844,62.874267578125 L396.2545166015625,65.77069854736328 L396.0215148925781,68.41900634765625 L396.0001220703125,70.67708587646484 L396.2081298828125,72.40165710449219 L396.6114501953125,73.51930236816406 L397.14263916015625,74.04285430908203 L397.6248779296875,74.15373992919922 L397.9454650878906,74.07169342041016 M408.1567687988281,45.0 L408.2066650390625,45.02368927001953 L408.2525939941406,45.24995422363281 L408.2551574707031,45.821571350097656 L408.19146728515625,46.84636688232422 L408.08135986328125,48.30401611328125 L407.9934387207031,50.15538787841797 L407.98126220703125,52.31708526611328 L408.0455322265625,54.706485748291016 L408.153076171875,57.21323013305664 L408.2591552734375,59.7281379699707 L408.29840087890625,62.12392044067383 L408.2497863769531,64.29798889160156 L408.1119384765625,66.15467071533203 L407.8822937011719,67.61685180664062 L407.5811462402344,68.6376724243164 L407.189453125,69.14452362060547 L406.6803283691406,69.1296615600586 L406.05926513671875,68.65909576416016 L405.49615478515625,68.05252838134766 L405.10382080078125,67.56198120117188 M395.7147521972656,62.714569091796875 L395.73773193359375,62.71372985839844 L396.00408935546875,62.7049674987793 L396.7117614746094,62.690162658691406 L398.0072937011719,62.66921615600586 L399.87225341796875,62.65081024169922 L402.17303466796875,62.64570617675781 L404.7087707519531,62.66459655761719 L407.30316162109375,62.704368591308594 L409.7633972167969,62.767974853515625 L411.93603515625,62.84028625488281 L413.509521484375,62.90180206298828 L414.4028625488281,62.9405403137207 M416.622802734375,68.20775604248047 L416.8716125488281,68.20531463623047 L417.3935852050781,68.13695526123047 L418.22509765625,67.95085906982422 L419.30242919921875,67.60076141357422 L420.55767822265625,67.09346008300781 L421.9220275878906,66.44747924804688 L423.3085021972656,65.68984985351562 L424.6053771972656,64.8368148803711 L425.678466796875,63.92064666748047 L426.40704345703125,62.97758483886719 L426.71331787109375,62.07954025268555 L426.57427978515625,61.28700256347656 L425.9851379394531,60.65476989746094 L424.9709167480469,60.225948333740234 L423.5851745605469,60.051536560058594 L421.9391174316406,60.165916442871094 L420.15118408203125,60.59090042114258 L418.380615234375,61.29936599731445 L416.7672119140625,62.24190902709961 L415.4457702636719,63.35165023803711 L414.54119873046875,64.5697021484375 L414.1429443359375,65.82804870605469 L414.28863525390625,67.06412506103516 L414.9981994628906,68.1920166015625 L416.2626037597656,69.14445495605469 L418.02032470703125,69.86795043945312 L420.1826171875,70.3319320678711 L422.595703125,70.53717041015625 L425.08282470703125,70.52000427246094 L427.4432678222656,70.30906677246094 L429.534912109375,69.95294189453125 L431.24468994140625,69.44834899902344 L432.53680419921875,68.79313659667969 L433.4256591796875,68.02152252197266 L433.9464111328125,67.34203338623047 L434.17962646484375,66.88105010986328 M434.5030212402344,60.05615997314453 L434.61767578125,60.1945915222168 L434.8367919921875,60.558414459228516 L435.17999267578125,61.23073959350586 L435.6526794433594,62.227020263671875 L436.2727966308594,63.489830017089844 L437.03204345703125,64.8993148803711 L437.9234619140625,66.31248474121094 L438.94989013671875,67.58452606201172 L440.1240234375,68.56973266601562 L441.4608154296875,69.15983581542969 L442.9326171875,69.28044128417969 L444.4893798828125,68.91917419433594 L446.03912353515625,68.12841796875 L447.4869079589844,67.00578308105469 L448.7388000488281,65.6781997680664 L449.7141418457031,64.30387115478516 L450.3843994140625,63.052303314208984 L450.7400207519531,62.048362731933594 L450.83172607421875,61.38840103149414 L450.70977783203125,61.120338439941406 L450.3941345214844,61.273704528808594 L449.858642578125,61.88677215576172 L449.0906982421875,63.00386428833008 L448.038330078125,64.60070037841797 L446.7440490722656,66.61995697021484 L445.243408203125,68.95487976074219 L443.60693359375,71.47148895263672 L441.89154052734375,74.04387664794922 L440.1936950683594,76.5538330078125 L438.6009826660156,78.87968444824219 L437.229736328125,80.91773986816406 L436.1925354003906,82.53450012207031 L435.57464599609375,83.61933135986328 L435.3622131347656,84.13819885253906 L435.40631103515625,84.24838256835938 L435.538330078125,84.158935546875 M453.98284912109375,69.88579559326172 L453.99810791015625,70.10413360595703 L453.97332763671875,70.53547668457031 L453.8513488769531,71.19884490966797 L453.58984375,72.04766845703125 L453.18743896484375,73.04291534423828 L452.652099609375,74.11758422851562 L452.0212097167969,75.21753692626953 L451.32867431640625,76.27168273925781 L450.6289978027344,77.19719696044922 L450.0024108886719,77.92234802246094 L449.55560302734375,78.3853759765625 L449.3114929199219,78.60321807861328 M476.94549560546875,48.150875091552734 L476.96539306640625,48.04218673706055 L477.0118713378906,47.98465347290039 L477.0840759277344,48.134986877441406 L477.1604919433594,48.668148040771484 L477.2008972167969,49.66642379760742 L477.19183349609375,51.14274215698242 L477.1138916015625,53.0457649230957 L476.9427185058594,55.296295166015625 L476.675048828125,57.79133987426758 L476.3096618652344,60.397342681884766 L475.85443115234375,62.95536422729492 L475.36065673828125,65.30640411376953 L474.8745422363281,67.3056640625 L474.4148254394531,68.85623931884766 L474.00445556640625,69.93135833740234 L473.6549072265625,70.49354553222656 L473.36260986328125,70.55335998535156 L473.1449890136719,70.1800537109375 L473.0142822265625,69.6600112915039 L472.95269775390625,69.22392272949219 M469.868408203125,61.820735931396484 L469.8836669921875,61.721683502197266 L470.06890869140625,61.62235641479492 L470.55963134765625,61.56004333496094 L471.4678955078125,61.57206726074219 L472.79547119140625,61.62944793701172 L474.46063232421875,61.69477462768555 L476.371826171875,61.723941802978516 L478.3802185058594,61.705528259277344 L480.3151550292969,61.6195182800293 L481.80780029296875,61.50975799560547 L482.7040710449219,61.4193115234375 M485.732177734375,50.94863510131836 L485.8266906738281,50.530433654785156 L485.9717102050781,50.00635528564453 L486.12939453125,49.59287643432617 L486.24658203125,49.57270812988281 L486.30645751953125,50.04022979736328 L486.3062438964844,51.028724670410156 L486.25048828125,52.489017486572266 L486.16937255859375,54.3773193359375 L486.07257080078125,56.584434509277344 L485.9721374511719,58.970191955566406 L485.87139892578125,61.39667892456055 L485.78662109375,63.70833969116211 L485.7034912109375,65.75004577636719 L485.6355285644531,67.39772033691406 L485.56158447265625,68.56198120117188 L485.4837951660156,69.21024322509766 L485.4427185058594,69.35792541503906 L485.5157470703125,69.0373764038086 L485.78106689453125,68.29283142089844 L486.314208984375,67.1865005493164 L487.112548828125,65.82149505615234 L488.1566467285156,64.33026885986328 L489.4034423828125,62.86372375488281 L490.783447265625,61.57659912109375 L492.2093505859375,60.58741760253906 L493.57952880859375,59.967403411865234 L494.7866516113281,59.762638092041016 L495.7762451171875,59.976531982421875 L496.5283508300781,60.59813690185547 L497.05267333984375,61.59857177734375 L497.3685302734375,62.897159576416016 L497.5030822753906,64.36561584472656 L497.5019226074219,65.82478332519531 L497.43280029296875,67.08656311035156 L497.3583984375,67.95825958251953 L497.31268310546875,68.41642761230469 M500.4670104980469,67.11844635009766 L500.7471618652344,67.12001037597656 L501.343017578125,67.05330657958984 L502.29400634765625,66.86577606201172 L503.52691650390625,66.50838470458984 L504.946533203125,65.98299407958984 L506.42474365234375,65.29985046386719 L507.83465576171875,64.48358917236328 L509.03973388671875,63.57460021972656 L509.9217529296875,62.64188003540039 L510.37774658203125,61.754051208496094 L510.359375,61.0029296875 L509.8550720214844,60.4520263671875 L508.92047119140625,60.169952392578125 L507.6334228515625,60.19900131225586 L506.13995361328125,60.56184005737305 L504.5866394042969,61.24639129638672 L503.1534423828125,62.222686767578125 L502.008056640625,63.42522430419922 L501.3044738769531,64.78878021240234 L501.12744140625,66.21292877197266 L501.52362060546875,67.58647918701172 L502.4607849121094,68.79251861572266 L503.88702392578125,69.72293853759766 L505.7193603515625,70.29667663574219 L507.8420104980469,70.48634338378906 L510.0876770019531,70.310546875 L512.2550048828125,69.82403564453125 L514.1483764648438,69.10298919677734 L515.6237182617188,68.21427917480469 L516.6170654296875,67.21778869628906 L517.144775390625,66.17881774902344 L517.2706909179688,65.1677474975586 L517.12353515625,64.2623062133789 L516.8583984375,63.55000305175781 L516.60302734375,63.096961975097656 L516.4295654296875,62.94765090942383 L516.33544921875,63.1302604675293 L516.2562255859375,63.632080078125 L516.1920776367188,64.421875 L516.1707763671875,65.438720703125 L516.2144165039062,66.56918334960938 L516.343017578125,67.66781616210938 L516.5264892578125,68.60890197753906 L516.6864013671875,69.27702331542969 L516.7841796875,69.60808563232422 L516.7982177734375,69.5802230834961 L516.69140625,69.17796325683594 L516.4834594726562,68.41480255126953 L516.200439453125,67.3513412475586 L515.8856201171875,66.08133697509766 L515.611572265625,64.71757507324219 L515.458251953125,63.3792610168457 L515.466796875,62.15323257446289 L515.674072265625,61.09843826293945 L516.10546875,60.24409484863281 L516.7958984375,59.60899353027344 L517.7640380859375,59.192718505859375 L519.02392578125,58.99204635620117 L520.5345458984375,58.985782623291016 L522.2550659179688,59.15131759643555 L524.080322265625,59.447166442871094 L525.8724975585938,59.81797409057617 L527.267822265625,60.14448165893555 L528.114501953125,60.36087417602539 M528.7501831054688,68.34862518310547 L529.1920166015625,68.28199768066406 L530.05078125,68.06999206542969 L531.310546875,67.6529541015625 L532.80029296875,67.01158905029297 L534.3802490234375,66.19245147705078 L535.9005126953125,65.25247955322266 L537.2423095703125,64.25369262695312 L538.302490234375,63.247982025146484 L538.9493408203125,62.284568786621094 L539.0704956054688,61.42005157470703 L538.607421875,60.73855972290039 L537.5551147460938,60.33400344848633 L536.0096435546875,60.29969024658203 L534.13916015625,60.688682556152344 L532.156005859375,61.49762725830078 L530.3013916015625,62.660335540771484 L528.8116455078125,64.06636810302734 L527.8671875,65.58809661865234 L527.5940551757812,67.1025390625 L528.1486206054688,68.49231719970703 L529.5285034179688,69.6575698852539 L531.572998046875,70.51863098144531 L533.5445556640625,71.03738403320312 L534.9320068359375,71.2682876586914 M546.2237548828125,49.052703857421875 L546.395263671875,49.054786682128906 L546.6099853515625,49.181358337402344 L546.7613525390625,49.51752853393555 L546.735595703125,50.13856887817383 L546.5147705078125,51.02919387817383 L546.1083374023438,52.143592834472656 L545.57421875,53.402687072753906 L545.0012817382812,54.741214752197266 L544.4747924804688,56.03784942626953 L544.100830078125,57.20306396484375 L543.9044189453125,58.04828643798828 L543.845947265625,58.52839660644531 M557.8025512695312,63.68419647216797 L557.7537231445312,63.365264892578125 L557.4976196289062,62.848297119140625 L556.8846435546875,62.22164535522461 L555.8447265625,61.672183990478516 L554.4201049804688,61.30140686035156 L552.77392578125,61.154972076416016 L551.140625,61.223846435546875 L549.7525024414062,61.49604797363281 L548.8115234375,61.950252532958984 L548.4803466796875,62.57624435424805 L548.813232421875,63.34483337402344 L549.8123779296875,64.22052001953125 L551.3916015625,65.1640396118164 L553.39404296875,66.15174865722656 L555.58251953125,67.17079162597656 L557.700439453125,68.18806457519531 L559.4901123046875,69.13581848144531 L560.765625,69.93804168701172 L561.4156494140625,70.54293060302734 L561.4200439453125,70.93526458740234 L560.7777709960938,71.15420532226562 L559.5394287109375,71.24005889892578 L557.7945556640625,71.2155990600586 L555.681396484375,71.0851821899414 L553.3983764648438,70.87718963623047 L551.1759033203125,70.61161041259766 L549.2080078125,70.33299255371094 L547.6767578125,70.06761169433594 L546.6859130859375,69.82898712158203 L546.242431640625,69.6176528930664 L546.1734619140625,69.4658432006836 L546.2741088867188,69.37590026855469 M588.1870727539062,49.655860900878906 L588.17138671875,49.2657356262207 L588.137939453125,48.77208709716797 L588.0958251953125,48.37173843383789 L588.0672607421875,48.32238006591797 L588.0792236328125,48.70071029663086 L588.1385498046875,49.570648193359375 L588.2386474609375,50.9010009765625 L588.3780517578125,52.678009033203125 L588.558349609375,54.827999114990234 L588.787353515625,57.22504806518555 L589.0491333007812,59.71547317504883 L589.302734375,62.157928466796875 L589.4650268554688,64.3927230834961 L589.4520263671875,66.32923126220703 L589.1907958984375,67.90412902832031 L588.6502685546875,69.0781021118164 L587.8157958984375,69.82395935058594 L586.7227172851562,70.13599395751953 L585.4400634765625,70.02534484863281 L584.0645751953125,69.56903839111328 L582.7076416015625,68.8547592163086 L581.4799194335938,67.98210144042969 L580.442626953125,67.0252685546875 L579.6939697265625,66.01272583007812 L579.30126953125,64.97966003417969 L579.2887573242188,63.989742279052734 L579.48779296875,63.22066879272461 L579.7273559570312,62.759342193603516 M592.4127197265625,62.86141586303711 L592.363525390625,62.865413665771484 L592.2620849609375,62.98432922363281 L592.1114501953125,63.32603073120117 L591.942138671875,63.9590950012207 L591.8013916015625,64.86865997314453 L591.74560546875,65.97633361816406 L591.842529296875,67.18339538574219 L592.150390625,68.36430358886719 L592.7379760742188,69.41378021240234 L593.6328125,70.21197509765625 L594.8184814453125,70.66596984863281 L596.214111328125,70.69488525390625 L597.6954956054688,70.28712463378906 L599.1328125,69.4676513671875 L600.423095703125,68.33880615234375 L601.4844360351562,67.0477294921875 L602.2755126953125,65.78900146484375 L602.8035278320312,64.72245788574219 L603.102294921875,63.95962142944336 L603.2254638671875,63.5341911315918 L603.2158813476562,63.45161437988281 L603.1175537109375,63.71183776855469 L602.9495849609375,64.33128356933594 L602.76904296875,65.29798126220703 L602.6209716796875,66.49021911621094 L602.548095703125,67.72550964355469 L602.5369262695312,68.69664764404297 L602.564453125,69.26709747314453 M615.1260986328125,68.52536010742188 L615.2000122070312,67.99959564208984 L615.1870727539062,67.17078399658203 L614.949462890625,66.1597671508789 L614.3626708984375,65.19544219970703 L613.4080810546875,64.35840606689453 L612.1290893554688,63.71102523803711 L610.6199951171875,63.31028366088867 L608.9912109375,63.21489334106445 L607.3759765625,63.46240997314453 L605.9191284179688,64.03046417236328 L604.7672729492188,64.8704833984375 L604.0580444335938,65.87457275390625 L603.8836669921875,66.91679382324219 L604.2843017578125,67.83606719970703 L605.2391357421875,68.50004577636719 L606.6593017578125,68.7909927368164 L608.432861328125,68.65424346923828 L610.4203491210938,68.06602478027344 L612.4957275390625,67.04593658447266 L614.5242919921875,65.62239074707031 L616.3870849609375,63.85932922363281 L617.9851684570312,61.850284576416016 L619.271728515625,59.72063446044922 L620.2181396484375,57.61125183105469 L620.85498046875,55.664676666259766 L621.2264404296875,53.9938850402832 L621.3914794921875,52.675750732421875 L621.3936157226562,51.76404571533203 L621.2896118164062,51.31119918823242 L621.1015014648438,51.34845733642578 L620.854248046875,51.89884567260742 L620.5921630859375,52.96803665161133 L620.3636474609375,54.50088119506836 L620.193603515625,56.38608932495117 L620.126220703125,58.4965705871582 L620.184814453125,60.673622131347656 L620.397216796875,62.776283264160156 L620.798828125,64.68871307373047 L621.40966796875,66.30264282226562 L622.2265625,67.52946472167969 L623.2227783203125,68.31918334960938 L624.36083984375,68.6644515991211 L625.6018676757812,68.60713195800781 L626.8968505859375,68.21002197265625 L628.16845703125,67.5372314453125 L629.3262939453125,66.6489028930664 L630.2681884765625,65.61143493652344 L630.913818359375,64.50961303710938 L631.2105712890625,63.43739700317383 L631.1317138671875,62.48890686035156 L630.660400390625,61.760555267333984 L629.792236328125,61.32838439941406 L628.5853271484375,61.26775360107422 L627.1422119140625,61.617095947265625 L625.6637573242188,62.36542510986328 L624.4261474609375,63.4489860534668 L623.72998046875,64.77136993408203 L623.8301391601562,66.19612121582031 L624.8753662109375,67.58116912841797 L626.93310546875,68.78229522705078 L630.04345703125,69.69574737548828 L633.109130859375,70.2570571899414 L635.3756713867188,70.51681518554688 " fill="none" stroke="black" stroke-linecap="round" stroke-width="1" /></svg>