<?xml version="1.0" encoding="utf-8" ?>
<svg baseProfile="full" height="100%" version="1.1" viewBox="0,0,300,120" width="100%" xmlns="http://www.w3.org/2000/svg" xmlns:ev="http://www.w3.org/2001/xml-events" xmlns:xlink="http://www.w3.org/1999/xlink"><defs /><rect fill="none" height="120" width="300" x="0" y="0" /><path d="M0,0 M46.13776397705078,46.150760650634766 L46.11129379272461,46.09300994873047 L46.088043212890625,46.120994567871094 L46.0661735534668,46.35378646850586 L46.04828643798828,46.914581298828125 L45.98584747314453,47.841373443603516 L45.879127502441406,49.15180969238281 L45.75309753417969,50.8390007019043 L45.63896942138672,52.90006637573242 L45.55236053466797,55.29564666748047 L45.50945281982422,57.95598220825195 L45.491973876953125,60.757232666015625 L45.50678253173828,63.55930709838867 L45.56977844238281,66.1834716796875 L45.691368103027344,68.47724151611328 L45.85674285888672,70.32014465332031 L46.047122955322266,71.59281921386719 L46.24242401123047,72.24710083007812 L46.40946960449219,72.332763671875 L46.524635314941406,72.10611724853516 L46.58879852294922,71.82182312011719 M44.96896743774414,60.04022979736328 L45.44367599487305,59.57329177856445 L46.35553741455078,58.914039611816406 L47.71746826171875,58.21125793457031 L49.38624954223633,57.66756057739258 L51.26429748535156,57.27650451660156 L53.22739791870117,57.00758361816406 L55.15815734863281,56.80036926269531 L56.90144348144531,56.612586975097656 L58.31466293334961,56.405029296875 L59.302040100097656,56.1471061706543 L59.85588836669922,55.901100158691406 L60.080230712890625,55.72325134277344 M58.96650695800781,45.04589080810547 L58.973731994628906,45.0 L59.007747650146484,45.0838623046875 L59.059120178222656,45.446693420410156 L59.08848571777344,46.23097610473633 L59.044273376464844,47.462013244628906 L58.9405403137207,49.11420822143555 L58.76814270019531,51.10597229003906 L58.57019805908203,53.360252380371094 L58.37657928466797,55.768245697021484 L58.191673278808594,58.23054504394531 L58.04639434814453,60.63899612426758 L57.94781494140625,62.886898040771484 L57.86180114746094,64.88429260253906 L57.773101806640625,66.56987762451172 L57.66992950439453,67.89749145507812 L57.56625747680664,68.85724639892578 L57.521121978759766,69.46226501464844 L57.54768371582031,69.7589111328125 L57.61371612548828,69.85132598876953 L57.68035125732422,69.84265899658203 M64.70626831054688,68.060546875 L65.01715087890625,67.96627807617188 L65.66944885253906,67.73943328857422 L66.70001983642578,67.34097290039062 L68.0062484741211,66.76130676269531 L69.46625518798828,66.02452087402344 L70.92760467529297,65.14553833007812 L72.27425384521484,64.1690902709961 L73.40335083007812,63.14570617675781 L74.21873474121094,62.12910461425781 L74.64045715332031,61.17500686645508 L74.61995697021484,60.351375579833984 L74.11954498291016,59.717445373535156 L73.13984680175781,59.361045837402344 L71.72889709472656,59.366085052490234 L69.97767639160156,59.776371002197266 L68.08287048339844,60.595455169677734 L66.28724670410156,61.76712417602539 L64.81442260742188,63.18687057495117 L63.84001922607422,64.73636627197266 L63.471160888671875,66.29537963867188 L63.75236511230469,67.7336196899414 L64.71100616455078,68.9482421875 L66.30667877197266,69.85846710205078 L68.43852233886719,70.41947937011719 L70.92413330078125,70.63719177246094 L73.52313995361328,70.55818939208984 L75.99837493896484,70.24773406982422 L78.15274810791016,69.74440002441406 L79.83248138427734,69.0941162109375 L81.00206756591797,68.3501205444336 L81.6722183227539,67.70792388916016 L81.95995330810547,67.28304290771484 M79.80941772460938,60.71222686767578 L80.07533264160156,60.9333381652832 L80.5995864868164,61.362892150878906 L81.37474822998047,62.000701904296875 L82.30082702636719,62.775264739990234 L83.33067321777344,63.64934158325195 L84.43952178955078,64.55399322509766 L85.6270751953125,65.42041778564453 L86.93359375,66.1450424194336 L88.32672882080078,66.6128158569336 L89.7214584350586,66.75123596191406 L90.83763122558594,66.67589569091797 L91.53345489501953,66.5231704711914 M96.64862060546875,59.33515548706055 L96.66461181640625,59.351261138916016 L96.64781951904297,59.509803771972656 L96.51907348632812,59.93070602416992 L96.17965698242188,60.70783615112305 L95.55760955810547,61.857913970947266 L94.61490631103516,63.36692428588867 L93.37706756591797,65.18241882324219 L91.93751525878906,67.24114227294922 L90.39209747314453,69.46400451660156 L88.85652923583984,71.74662017822266 L87.44413757324219,73.95166778564453 L86.28286743164062,75.94332885742188 L85.4709701538086,77.57608032226562 L85.06085205078125,78.7566909790039 L85.00469970703125,79.46003723144531 L85.256103515625,79.68317413330078 L85.72535705566406,79.47787475585938 L86.36566925048828,78.95162963867188 L86.96408081054688,78.37532043457031 L87.39025115966797,77.9442367553711 M101.51556396484375,71.05909729003906 L101.52887725830078,71.1041488647461 L101.54991912841797,71.24047088623047 L101.56794738769531,71.51512145996094 L101.57074737548828,71.96439361572266 L101.5156478881836,72.57688903808594 L101.37667846679688,73.34330749511719 L101.1231918334961,74.23817443847656 L100.7385025024414,75.23477935791016 L100.25711059570312,76.27352905273438 L99.76581573486328,77.28324890136719 L99.37804412841797,78.05931854248047 L99.15398406982422,78.52247619628906 M119.91947174072266,49.89234161376953 L119.90850830078125,49.64787292480469 L119.90058898925781,49.4190559387207 L119.88951873779297,49.41712951660156 L119.84842681884766,49.88245391845703 L119.72798919677734,50.88795471191406 L119.49242401123047,52.423309326171875 L119.13937377929688,54.395137786865234 L118.71367645263672,56.701210021972656 L118.28433990478516,59.2040901184082 L117.91812896728516,61.74333572387695 L117.63394165039062,64.16026306152344 L117.42042541503906,66.30500030517578 L117.26148986816406,68.04582214355469 L117.13876342773438,69.32428741455078 L117.05514526367188,70.1023178100586 L117.01618194580078,70.4648208618164 M111.83797454833984,59.76840591430664 L111.89453125,59.67470169067383 L112.16439819335938,59.56776428222656 L112.80094909667969,59.495357513427734 L113.89862823486328,59.507999420166016 L115.45218658447266,59.601776123046875 L117.34364318847656,59.73384094238281 L119.42521667480469,59.8740234375 L121.55029296875,59.95875930786133 L123.56644439697266,59.93265151977539 L125.34138488769531,59.760040283203125 L126.62898254394531,59.535911560058594 L127.35712432861328,59.339637756347656 M128.83334350585938,49.46363067626953 L128.95162963867188,49.20792770385742 L129.13333129882812,48.94440841674805 L129.3357696533203,48.866905212402344 L129.4818115234375,49.2028923034668 L129.5443115234375,50.05036544799805 L129.50099182128906,51.409915924072266 L129.37802124023438,53.210445404052734 L129.21139526367188,55.373878479003906 L129.01934814453125,57.7709846496582 L128.79721069335938,60.232784271240234 L128.53231811523438,62.605289459228516 L128.2262725830078,64.71086120605469 L127.91201782226562,66.41925811767578 L127.63623046875,67.64994812011719 L127.45597839355469,68.35526275634766 L127.43193817138672,68.50762176513672 L127.61904907226562,68.12346649169922 L128.07342529296875,67.23430633544922 L128.80111694335938,65.95681762695312 L129.75816345214844,64.4488525390625 L130.89044189453125,62.88221740722656 L132.12802124023438,61.409420013427734 L133.41238403320312,60.16752243041992 L134.67697143554688,59.23299789428711 L135.8594970703125,58.68072509765625 L136.91403198242188,58.53490447998047 L137.82725524902344,58.79762649536133 L138.58737182617188,59.42647171020508 L139.2157745361328,60.38301467895508 L139.6960906982422,61.5882682800293 L140.0262451171875,62.95230484008789 L140.24215698242188,64.3619613647461 L140.39132690429688,65.68798065185547 L140.52200317382812,66.797607421875 L140.642822265625,67.55677032470703 L140.7337646484375,67.955322265625 M144.68167114257812,67.39908599853516 L145.07467651367188,67.25762176513672 L145.79798889160156,66.96589660644531 L146.83311462402344,66.510986328125 L148.02955627441406,65.91099548339844 L149.3047637939453,65.18829345703125 L150.546630859375,64.36306762695312 L151.65713500976562,63.448394775390625 L152.5203399658203,62.473819732666016 L153.04124450683594,61.50172424316406 L153.11669921875,60.59136199951172 L152.70664978027344,59.82789611816406 L151.81114196777344,59.285675048828125 L150.48963928222656,59.02796936035156 L148.868896484375,59.10367202758789 L147.15757751464844,59.539772033691406 L145.5634307861328,60.32587432861328 L144.27919006347656,61.41462707519531 L143.46835327148438,62.723876953125 L143.24163818359375,64.13542175292969 L143.6395721435547,65.51779174804688 L144.66461181640625,66.73387908935547 L146.22413635253906,67.68785095214844 L148.14736938476562,68.31169128417969 L150.26113891601562,68.60009002685547 L152.38137817382812,68.5748291015625 L154.33155822753906,68.2767105102539 L156.00721740722656,67.76226043701172 L157.32167053222656,67.10140991210938 L158.23782348632812,66.37272644042969 L158.79551696777344,65.66765594482422 L159.0482635498047,65.06101989746094 L159.08096313476562,64.59898376464844 L158.99755859375,64.31287384033203 L158.86033630371094,64.2074203491211 L158.73272705078125,64.30863952636719 L158.6636962890625,64.62738037109375 L158.65283203125,65.15715789794922 L158.69944763183594,65.85838317871094 L158.80003356933594,66.6507568359375 L158.91404724121094,67.41327667236328 L159.03762817382812,68.06483459472656 L159.14955139160156,68.5267333984375 L159.2275390625,68.74067687988281 L159.25717163085938,68.66189575195312 L159.25669860839844,68.24342346191406 L159.23263549804688,67.4537353515625 L159.22738647460938,66.3541030883789 L159.2572021484375,65.04276275634766 L159.33761596679688,63.6340446472168 L159.48760986328125,62.23665237426758 L159.73257446289062,60.919036865234375 L160.09922790527344,59.721553802490234 L160.60426330566406,58.70073699951172 L161.25732421875,57.900997161865234 L162.05868530273438,57.35418701171875 L163.04254150390625,57.083526611328125 L164.21873474121094,57.0965690612793 L165.57681274414062,57.364322662353516 L167.04852294921875,57.83498764038086 L168.56304931640625,58.4366569519043 L169.99876403808594,59.07316970825195 L171.26220703125,59.65331268310547 L172.16990661621094,60.07574462890625 L172.67922973632812,60.30990219116211 M173.09085083007812,65.87488555908203 L173.26931762695312,65.87319946289062 L173.7148895263672,65.79265594482422 L174.49720764160156,65.57263946533203 L175.60888671875,65.16666412353516 L176.9658660888672,64.58135986328125 L178.47213745117188,63.8599853515625 L179.96836853027344,63.041465759277344 L181.30899047851562,62.16279983520508 L182.34329223632812,61.26593017578125 L182.96348571777344,60.384803771972656 L183.10902404785156,59.574642181396484 L182.78073120117188,58.90650177001953 L181.987060546875,58.46330261230469 L180.75730895996094,58.32220458984375 L179.1806182861328,58.547611236572266 L177.39208984375,59.15135192871094 L175.5937042236328,60.10736083984375 L174.004638671875,61.34079360961914 L172.83297729492188,62.757728576660156 L172.22642517089844,64.23721313476562 L172.3036651611328,65.65858459472656 L173.1140899658203,66.89881134033203 L174.60557556152344,67.86679077148438 L176.74026489257812,68.46226501464844 L179.33714294433594,68.65567016601562 L182.1297607421875,68.47547912597656 L184.4324188232422,68.14090728759766 L185.89559936523438,67.8380355834961 M188.31565856933594,49.96701431274414 L188.50592041015625,49.85528564453125 L188.75723266601562,49.74627685546875 L188.9910125732422,49.717315673828125 L189.1157684326172,49.879112243652344 L189.14901733398438,50.24516296386719 L189.13304138183594,50.800140380859375 L189.11431884765625,51.335533142089844 L189.10675048828125,51.720272064208984 M203.17478942871094,59.96699905395508 L202.80136108398438,59.67686080932617 L202.02383422851562,59.286376953125 L200.7765655517578,58.93342208862305 L199.1450958251953,58.790794372558594 L197.26675415039062,58.88268280029297 L195.3779296875,59.16768264770508 L193.74754333496094,59.579490661621094 L192.63621520996094,60.090694427490234 L192.21929931640625,60.69340133666992 L192.57374572753906,61.38324737548828 L193.6541748046875,62.14531707763672 L195.34951782226562,62.948936462402344 L197.47084045410156,63.78252410888672 L199.7951202392578,64.63250732421875 L202.06814575195312,65.47855377197266 L204.07315063476562,66.30011749267578 L205.60182189941406,67.06421661376953 L206.53175354003906,67.7486343383789 L206.79556274414062,68.35897064208984 L206.3854522705078,68.89256286621094 L205.33865356445312,69.34646606445312 L203.76832580566406,69.70771789550781 L201.82810974121094,69.93928527832031 L199.71913146972656,70.02249908447266 L197.66644287109375,69.96961212158203 L195.85829162597656,69.82388305664062 L194.4082794189453,69.64596557617188 L193.44256591796875,69.4790267944336 L193.03692626953125,69.3350830078125 L193.18287658691406,69.21212005615234 L193.60089111328125,69.11872863769531 L194.02330017089844,69.06095123291016 M226.72061157226562,48.69985580444336 L226.87445068359375,48.60379409790039 L227.14208984375,48.59184265136719 L227.52496337890625,48.81156921386719 L227.99717712402344,49.4034423828125 L228.57102966308594,50.394737243652344 L229.22312927246094,51.76092529296875 L229.93321228027344,53.45307922363281 L230.67604064941406,55.428043365478516 L231.42257690429688,57.594398498535156 L232.13990783691406,59.8283805847168 L232.78298950195312,61.97184753417969 L233.28550720214844,63.9094352722168 L233.5758056640625,65.5796890258789 L233.6102752685547,66.9747085571289 L233.35157775878906,68.08616638183594 L232.78346252441406,68.90644836425781 L231.91354370117188,69.39188385009766 L230.77456665039062,69.53856658935547 L229.43516540527344,69.3869400024414 L227.97410583496094,68.99153900146484 L226.46661376953125,68.40819549560547 L224.9788055419922,67.6812973022461 L223.55149841308594,66.80935668945312 L222.25726318359375,65.81451416015625 L221.1988983154297,64.77192687988281 L220.44590759277344,63.76293182373047 L220.03060913085938,62.86861801147461 L220.03204345703125,62.16346740722656 L220.43568420410156,61.656166076660156 L221.21746826171875,61.342201232910156 L222.0513458251953,61.190773010253906 L222.68264770507812,61.14472198486328 M233.7545623779297,60.73855209350586 L233.66439819335938,60.87583541870117 L233.53530883789062,61.20359420776367 L233.39537048339844,61.787864685058594 L233.32298278808594,62.642330169677734 L233.37025451660156,63.73240280151367 L233.6016387939453,64.96717834472656 L234.05227661132812,66.20979309082031 L234.76544189453125,67.3094711303711 L235.718994140625,68.11439514160156 L236.906005859375,68.51638793945312 L238.2725372314453,68.46654510498047 L239.7376708984375,67.96412658691406 L241.2058563232422,67.0625228881836 L242.57496643066406,65.87776947021484 L243.7363739013672,64.54679870605469 L244.64317321777344,63.24528503417969 L245.27725219726562,62.14546585083008 L245.65469360351562,61.3498420715332 L245.8331756591797,60.91223907470703 L245.8585205078125,60.85792922973633 L245.79273986816406,61.184417724609375 L245.6824188232422,61.8930778503418 L245.5845489501953,62.93782043457031 L245.57777404785156,64.21564483642578 L245.71884155273438,65.56116485595703 L246.01309204101562,66.80522155761719 L246.34169006347656,67.7125473022461 L246.58975219726562,68.22339630126953 M258.5809020996094,65.70986938476562 L258.587646484375,65.25516510009766 L258.47015380859375,64.53309631347656 L258.1099853515625,63.66696548461914 L257.4232177734375,62.88236999511719 L256.422607421875,62.28607177734375 L255.1665802001953,61.94731140136719 L253.74298095703125,61.89731216430664 L252.27188110351562,62.19612121582031 L250.88583374023438,62.854835510253906 L249.73484802246094,63.82551956176758 L248.96241760253906,65.00688934326172 L248.68051147460938,66.24234008789062 L248.93478393554688,67.34275817871094 L249.71896362304688,68.16123962402344 L250.9724578857422,68.5499496459961 L252.57855224609375,68.41386413574219 L254.4066162109375,67.71427917480469 L256.326416015625,66.47823333740234 L258.2015380859375,64.77534484863281 L259.9012145996094,62.734371185302734 L261.34246826171875,60.49021530151367 L262.4683837890625,58.19955825805664 L263.2948303222656,56.00596618652344 L263.86346435546875,54.069984436035156 L264.23248291015625,52.50486373901367 L264.4378662109375,51.395774841308594 L264.50054931640625,50.78887939453125 L264.4368591308594,50.72261428833008 L264.2904968261719,51.20267105102539 L264.0771484375,52.24601745605469 L263.8529052734375,53.77423858642578 L263.6724853515625,55.668907165527344 L263.5602111816406,57.75600051879883 L263.5599060058594,59.87257385253906 L263.7010498046875,61.866573333740234 L263.9525146484375,63.64606475830078 L264.2857666015625,65.10821533203125 L264.6566162109375,66.21349334716797 L264.95452880859375,66.9057846069336 L265.139892578125,67.24333953857422 M266.6632080078125,67.65489196777344 L266.8345031738281,67.50629425048828 L267.2815856933594,67.1968994140625 L268.103271484375,66.6993637084961 L269.2908630371094,66.0483627319336 L270.7581787109375,65.27783203125 L272.34661865234375,64.40882110595703 L273.88909912109375,63.46170425415039 L275.24298095703125,62.458133697509766 L276.283447265625,61.42133712768555 L276.90399169921875,60.42528533935547 L277.02911376953125,59.55011749267578 L276.59185791015625,58.88836669921875 L275.59466552734375,58.528377532958984 L274.133056640625,58.546756744384766 L272.402099609375,58.94988250732422 L270.68408203125,59.704933166503906 L269.27313232421875,60.71723937988281 L268.410888671875,61.884437561035156 L268.26446533203125,63.08181381225586 L268.914306640625,64.2148666381836 L270.36346435546875,65.16629791259766 L272.51129150390625,65.85646057128906 L275.22430419921875,66.25483703613281 L278.37939453125,66.39028930664062 L281.125732421875,66.36823272705078 L282.982177734375,66.3027114868164 " fill="none" stroke="purple" stroke-linecap="round" stroke-width="1" /></svg>