<?xml version="1.0" encoding="utf-8" ?>
<svg baseProfile="full" height="100%" version="1.1" viewBox="0,0,300,120" width="100%" xmlns="http://www.w3.org/2000/svg" xmlns:ev="http://www.w3.org/2001/xml-events" xmlns:xlink="http://www.w3.org/1999/xlink"><defs /><rect fill="black" height="120" width="300" x="0" y="0" /><path d="M0,0 M34.357025146484375,45.57545852661133 L34.302490234375,45.440643310546875 L34.24535369873047,45.299129486083984 L34.20741271972656,45.244476318359375 L34.216121673583984,45.41314697265625 L34.24879837036133,45.874244689941406 L34.28554916381836,46.73609161376953 L34.285118103027344,48.02039337158203 L34.26469039916992,49.729061126708984 L34.22842788696289,51.803558349609375 L34.19809341430664,54.16451644897461 L34.18373489379883,56.71101379394531 L34.16563415527344,59.3891487121582 L34.11497116088867,62.12245559692383 L34.034515380859375,64.8270034790039 L33.93755340576172,67.3779067993164 L33.86482238769531,69.60881042480469 L33.86284255981445,71.33150482177734 L33.92469024658203,72.474365234375 L34.01676940917969,73.08439636230469 L34.12208557128906,73.22368621826172 L34.238807678222656,72.9753646850586 L34.38618087768555,72.39857482910156 L34.53581237792969,71.75267028808594 L34.65312576293945,71.24531555175781 M34.589420318603516,60.334197998046875 L34.860015869140625,60.18370056152344 L35.49211883544922,59.95185089111328 L36.567955017089844,59.66547393798828 L38.025089263916016,59.36069869995117 L39.775428771972656,59.03722381591797 L41.68402099609375,58.688514709472656 L43.638694763183594,58.32395935058594 L45.546573638916016,57.93641662597656 L47.275177001953125,57.503883361816406 L48.67383575439453,56.99176025390625 L49.604278564453125,56.52692413330078 L50.0711784362793,56.192962646484375 M49.84452819824219,45.0 L49.872920989990234,45.039581298828125 L49.887203216552734,45.326473236083984 L49.84939956665039,46.03534698486328 L49.71917724609375,47.279212951660156 L49.48329162597656,49.01544952392578 L49.180816650390625,51.14247131347656 L48.85654830932617,53.550052642822266 L48.55659484863281,56.112831115722656 L48.3070182800293,58.710330963134766 L48.105621337890625,61.21913528442383 L47.937278747558594,63.50886917114258 L47.80693054199219,65.49372100830078 L47.709686279296875,67.11390686035156 L47.66001892089844,68.34346771240234 L47.64769744873047,69.13090515136719 L47.65462875366211,69.52857971191406 M54.32966613769531,67.82172393798828 L54.56653594970703,67.76075744628906 L55.072410583496094,67.59754943847656 L55.89012908935547,67.29340362548828 L56.97772216796875,66.83061981201172 L58.28008270263672,66.22728729248047 L59.706119537353516,65.49514770507812 L61.164154052734375,64.6655044555664 L62.544822692871094,63.76471710205078 L63.71713638305664,62.824432373046875 L64.5697021484375,61.87346267700195 L65.04403686523438,60.97344970703125 L65.10220336914062,60.16259002685547 L64.73558044433594,59.50728225708008 L63.959442138671875,59.0732536315918 L62.79514694213867,58.923465728759766 L61.296138763427734,59.09724426269531 L59.594974517822266,59.62309265136719 L57.82071304321289,60.47517776489258 L56.11621856689453,61.60992431640625 L54.64488983154297,62.96077346801758 L53.55598831176758,64.4483871459961 L52.9566535949707,65.97648620605469 L52.951473236083984,67.44288635253906 L53.569114685058594,68.7450942993164 L54.79063034057617,69.79434967041016 L56.545711517333984,70.52098083496094 L58.716941833496094,70.90347290039062 L61.13017654418945,70.9660415649414 L63.58531188964844,70.77043151855469 L65.88311767578125,70.4112319946289 L67.8472900390625,69.99040222167969 L69.36465454101562,69.54838562011719 L70.41421508789062,69.11087036132812 L71.05950164794922,68.68195343017578 L71.38594055175781,68.3331298828125 L71.516357421875,68.1052474975586 M71.4209976196289,59.13399124145508 L71.45930480957031,59.26115798950195 L71.58795928955078,59.574100494384766 L71.85906219482422,60.13856506347656 L72.294189453125,60.9602165222168 L72.90960693359375,62.009765625 L73.69261169433594,63.18918228149414 L74.63137817382812,64.38628387451172 L75.77234649658203,65.47063446044922 L77.1039810180664,66.31810760498047 L78.55430603027344,66.85101318359375 L79.78309631347656,67.10137939453125 L80.58199310302734,67.15837860107422 M87.90806579589844,59.26064682006836 L87.9441909790039,59.157806396484375 L87.92681121826172,59.112892150878906 L87.76537322998047,59.2628288269043 L87.36238098144531,59.745750427246094 L86.6635971069336,60.59687423706055 L85.68484497070312,61.78788375854492 L84.51429748535156,63.26034164428711 L83.22869110107422,64.95145416259766 L81.9065933227539,66.81477355957031 L80.5986328125,68.79698181152344 L79.32913208007812,70.83833312988281 L78.13992309570312,72.83779907226562 L77.11166381835938,74.68910217285156 L76.31543731689453,76.28135681152344 L75.78964233398438,77.54837799072266 L75.59814453125,78.39420318603516 L75.74649810791016,78.77458953857422 L76.19319152832031,78.69499969482422 L76.71024322509766,78.38860321044922 L77.11832427978516,78.07012939453125 M90.60920715332031,68.68236541748047 L90.6632080078125,68.73316192626953 L90.71073913574219,68.89863586425781 L90.6869888305664,69.25448608398438 L90.49877166748047,69.85540771484375 L90.08354187011719,70.71993255615234 L89.45294189453125,71.82998657226562 L88.6567611694336,73.13957214355469 L87.80267333984375,74.54822540283203 L87.04498291015625,75.90528106689453 L86.50630950927734,77.05105590820312 L86.21835327148438,77.8243179321289 L86.13226318359375,78.2126235961914 M112.95893859863281,47.977455139160156 L112.9952392578125,47.91722869873047 L113.03994750976562,47.97669219970703 L113.06266784667969,48.302162170410156 L113.02159118652344,49.02896499633789 L112.87992858886719,50.1723518371582 L112.62871551513672,51.68920135498047 L112.28079986572266,53.51023483276367 L111.87914276123047,55.562015533447266 L111.49199676513672,57.7523193359375 L111.17217254638672,59.9874153137207 L110.92321014404297,62.14897918701172 L110.72248840332031,64.11861419677734 L110.53386688232422,65.78939819335938 L110.34073638916016,67.08361053466797 L110.1781997680664,67.95809936523438 L110.09129333496094,68.34830474853516 L110.09780883789062,68.24241638183594 L110.1988525390625,67.69241333007812 L110.32720947265625,67.01964569091797 L110.4256591796875,66.48455810546875 M105.41434478759766,58.997779846191406 L105.48518371582031,58.988433837890625 L105.79749298095703,58.9754638671875 L106.50753021240234,58.94957733154297 L107.70801544189453,58.91028594970703 L109.33320617675781,58.84019088745117 L111.24209594726562,58.73891830444336 L113.26244354248047,58.6099967956543 L115.25338745117188,58.43612289428711 L117.09980010986328,58.20042037963867 L118.7337417602539,57.90251541137695 L119.92433166503906,57.62184143066406 L120.6122817993164,57.42115783691406 M121.60177612304688,47.0776252746582 L121.66343688964844,47.143760681152344 L121.78907012939453,47.445404052734375 L121.97621154785156,48.13948440551758 L122.18075561523438,49.31151580810547 L122.34407043457031,50.932289123535156 L122.41844177246094,52.934635162353516 L122.36544799804688,55.230159759521484 L122.17948913574219,57.69927215576172 L121.90201568603516,60.21796417236328 L121.58631896972656,62.606876373291016 L121.27991485595703,64.68120574951172 L121.06145477294922,66.2895736694336 L120.9604721069336,67.33711242675781 L121.00480651855469,67.78242492675781 L121.2318344116211,67.6656723022461 L121.66145324707031,67.0475082397461 L122.28448486328125,66.02532958984375 L123.11445617675781,64.71770477294922 L124.11763763427734,63.25581359863281 L125.26709747314453,61.77215576171875 L126.53162384033203,60.4079475402832 L127.84912109375,59.28649139404297 L129.1389923095703,58.50175857543945 L130.31544494628906,58.11761474609375 L131.3077850341797,58.16200256347656 L132.09031677246094,58.62899398803711 L132.67172241210938,59.48388671875 L133.06558227539062,60.676353454589844 L133.3054656982422,62.09942626953125 L133.40834045410156,63.629642486572266 L133.4233856201172,65.13672637939453 L133.46180725097656,66.48085021972656 L133.61465454101562,67.54181671142578 L133.93675231933594,68.26020812988281 L134.30709838867188,68.64053344726562 L134.5990447998047,68.77462768554688 M138.6833953857422,66.30581665039062 L138.94346618652344,66.0739974975586 L139.4737548828125,65.65237426757812 L140.28680419921875,65.03572845458984 L141.2889862060547,64.27293395996094 L142.36825561523438,63.384681701660156 L143.4011688232422,62.40461730957031 L144.2639923095703,61.39047622680664 L144.86163330078125,60.41943359375 L145.11671447753906,59.55841827392578 L144.9764404296875,58.87153244018555 L144.42738342285156,58.42815017700195 L143.5143585205078,58.30797576904297 L142.3148651123047,58.57523727416992 L140.97474670410156,59.23530960083008 L139.66729736328125,60.23722839355469 L138.5784149169922,61.47880172729492 L137.8800506591797,62.84236145019531 L137.6997833251953,64.21949768066406 L138.08226013183594,65.49519348144531 L139.02139282226562,66.55928802490234 L140.43934631347656,67.32898712158203 L142.23008728027344,67.76083374023438 L144.24696350097656,67.86070251464844 L146.30799865722656,67.65621185302734 L148.22157287597656,67.18568420410156 L149.83555603027344,66.47917175292969 L151.04872131347656,65.5638656616211 L151.84046936035156,64.47700500488281 L152.24537658691406,63.28125762939453 L152.3413543701172,62.050315856933594 L152.23533630371094,60.88969039916992 L152.04954528808594,59.89356231689453 L151.88194274902344,59.130584716796875 L151.76856994628906,58.632835388183594 L151.71351623535156,58.4345817565918 L151.6868133544922,58.54612731933594 L151.6636199951172,58.99768829345703 L151.6497344970703,59.79557800292969 L151.6456756591797,60.90248489379883 L151.6372528076172,62.22358703613281 L151.6407012939453,63.660011291503906 L151.6524200439453,65.0644302368164 L151.67796325683594,66.30107116699219 L151.73414611816406,67.26986694335938 L151.80406188964844,67.90330505371094 L151.8710479736328,68.15811920166016 L151.9352264404297,68.03634643554688 L151.9917449951172,67.52760314941406 L152.03981018066406,66.64550018310547 L152.0948944091797,65.47201538085938 L152.15834045410156,64.11360168457031 L152.2350616455078,62.6835823059082 L152.33799743652344,61.28413391113281 L152.48585510253906,59.97784423828125 L152.69847106933594,58.809391021728516 L153.03453063964844,57.83449935913086 L153.5435333251953,57.09705352783203 L154.26206970214844,56.619285583496094 L155.22190856933594,56.40114974975586 L156.41770935058594,56.40930938720703 L157.80543518066406,56.585472106933594 L159.33668518066406,56.88011932373047 L160.91200256347656,57.24075698852539 L162.4406280517578,57.62204360961914 L163.82518005371094,57.98835372924805 L164.99049377441406,58.3100471496582 L165.7992401123047,58.53719711303711 L166.2451629638672,58.66609191894531 M165.54554748535156,65.15288543701172 L165.91908264160156,65.12847900390625 L166.63597106933594,65.03823852539062 L167.69859313964844,64.83338928222656 L169.0005645751953,64.49881744384766 L170.46409606933594,64.02823638916016 L171.9836883544922,63.42589569091797 L173.44984436035156,62.701541900634766 L174.7431182861328,61.88643264770508 L175.73060607910156,61.00617980957031 L176.30592346191406,60.1368408203125 L176.4015350341797,59.35056686401367 L175.97825622558594,58.72771453857422 L175.0521697998047,58.34571075439453 L173.6913299560547,58.28878402709961 L172.0089874267578,58.60068893432617 L170.17723083496094,59.293983459472656 L168.40736389160156,60.33041000366211 L166.8987274169922,61.61720275878906 L165.83314514160156,63.05122375488281 L165.3301544189453,64.53612518310547 L165.4387664794922,65.98455047607422 L166.1445770263672,67.29533386230469 L167.35862731933594,68.3792953491211 L169.0412139892578,69.1057357788086 L171.07652282714844,69.41891479492188 L173.2881622314453,69.33280944824219 L175.13572692871094,69.06166076660156 L176.3242645263672,68.79205322265625 M183.37266540527344,49.8814811706543 L183.4114227294922,49.8357048034668 L183.47108459472656,49.931060791015625 L183.5203094482422,50.28099060058594 L183.5368194580078,50.99456787109375 L183.52757263183594,51.995540618896484 L183.5259552001953,53.14104080200195 L183.54051208496094,54.0997200012207 L183.5714874267578,54.71215057373047 M199.19859313964844,61.08620834350586 L199.12684631347656,60.89194107055664 L198.89186096191406,60.52812957763672 L198.36802673339844,60.02240753173828 L197.48817443847656,59.493858337402344 L196.22703552246094,59.04295349121094 L194.6433868408203,58.73564529418945 L192.87904357910156,58.603111267089844 L191.1385040283203,58.652503967285156 L189.60801696777344,58.8701286315918 L188.49668884277344,59.266563415527344 L187.9224395751953,59.83843231201172 L187.9445343017578,60.56218338012695 L188.57899475097656,61.4182243347168 L189.79222106933594,62.372562408447266 L191.4716339111328,63.37425231933594 L193.4753875732422,64.38653564453125 L195.6059112548828,65.3713150024414 L197.6285858154297,66.29114532470703 L199.35459899902344,67.11573791503906 L200.64564514160156,67.81585693359375 L201.4175567626953,68.37455749511719 L201.6510467529297,68.78804779052734 L201.3705596923828,69.07425689697266 L200.56690979003906,69.25223541259766 L199.26490783691406,69.3252182006836 L197.50123596191406,69.29138946533203 L195.36216735839844,69.15144348144531 L192.99000549316406,68.91588592529297 L190.5907745361328,68.61445617675781 L188.3682098388672,68.2822265625 L186.4994659423828,67.93762969970703 L185.16587829589844,67.5988540649414 L184.47474670410156,67.28966522216797 L184.41517639160156,67.03547668457031 L184.70008850097656,66.86434936523438 L185.05055236816406,66.77931213378906 M225.3055877685547,49.21031951904297 L225.46461486816406,49.0594367980957 L225.76976013183594,48.90195846557617 L226.25779724121094,48.846778869628906 L226.93385314941406,49.01346206665039 L227.81837463378906,49.408302307128906 L228.90928649902344,50.018497467041016 L230.16770935058594,50.79586410522461 L231.54832458496094,51.687294006347656 L233.03407287597656,52.62213134765625 L234.60853576660156,53.5002555847168 L236.2452850341797,54.189361572265625 L237.9203338623047,54.598609924316406 L239.56947326660156,54.65977478027344 L241.14894104003906,54.36260986328125 L242.6020050048828,53.73540496826172 L243.8596954345703,52.86178970336914 L244.85292053222656,51.86726379394531 L245.5503387451172,50.91950607299805 L245.9471893310547,50.14665985107422 L246.12864685058594,49.64097595214844 L246.1952362060547,49.43671798706055 L246.24537658691406,49.547550201416016 L246.33021545410156,50.01625442504883 L246.45726013183594,50.89677429199219 L246.5862274169922,52.1927490234375 L246.6859893798828,53.86177444458008 L246.7510528564453,55.82068634033203 L246.78099060058594,57.92926025390625 L246.75999450683594,60.07712173461914 L246.6570281982422,62.16792678833008 L246.42137145996094,64.12966918945312 L245.9893035888672,65.90890502929688 L245.32398986816406,67.47171783447266 L244.4024200439453,68.77384948730469 L243.2235870361328,69.78931427001953 L241.8132781982422,70.49099731445312 L240.23423767089844,70.88104248046875 L238.53773498535156,70.95362854003906 L236.78541564941406,70.73854064941406 L235.0553741455078,70.26912689208984 L233.44468688964844,69.5875015258789 L232.07447814941406,68.75406646728516 L231.05043029785156,67.8463363647461 L230.5010528564453,66.90381622314453 L230.47520446777344,66.00743865966797 L230.94834899902344,65.20236206054688 L231.5876922607422,64.60657501220703 L232.1247100830078,64.26067352294922 M248.3000030517578,61.02541732788086 L248.2759246826172,61.14433288574219 L248.21620178222656,61.484901428222656 L248.1147003173828,62.13368225097656 L248.0000762939453,63.108375549316406 L247.93101501464844,64.34347534179688 L247.99082946777344,65.72810363769531 L248.2611541748047,67.14221954345703 L248.78904724121094,68.44645690917969 L249.5910186767578,69.5087890625 L250.6672821044922,70.22237396240234 L251.9929656982422,70.51113891601562 L253.49595642089844,70.338623046875 L255.0901336669922,69.72169494628906 L256.64422607421875,68.7110595703125 L258.033203125,67.40264892578125 L259.1778564453125,65.93521118164062 L260.0528564453125,64.47859191894531 L260.6566162109375,63.189125061035156 L261.03680419921875,62.17721176147461 L261.2330322265625,61.5089111328125 L261.28759765625,61.215980529785156 L261.24957275390625,61.31424331665039 L261.1702880859375,61.83352279663086 L261.0867919921875,62.77201461791992 L261.04718017578125,64.0499038696289 L261.09814453125,65.53326416015625 L261.2642822265625,67.05497741699219 L261.59576416015625,68.45386505126953 L262.0986328125,69.62142181396484 L262.73382568359375,70.49929809570312 L263.31036376953125,71.04402160644531 L263.7081298828125,71.30519104003906 M274.862060546875,66.39924621582031 L274.94476318359375,65.89797973632812 L274.98193359375,65.1189193725586 L274.85723876953125,64.18741607666016 L274.4356689453125,63.32808303833008 L273.6644287109375,62.615814208984375 L272.5762939453125,62.12020492553711 L271.24371337890625,61.878082275390625 L269.792236328125,61.96582794189453 L268.3660888671875,62.417320251464844 L267.09405517578125,63.215675354003906 L266.10302734375,64.29261016845703 L265.5206298828125,65.55632019042969 L265.40679931640625,66.85502624511719 L265.8193359375,68.03829956054688 L266.749267578125,68.95307922363281 L268.12872314453125,69.47419738769531 L269.84320068359375,69.51013946533203 L271.76141357421875,69.04993438720703 L273.71575927734375,68.1054458618164 L275.5753173828125,66.70746612548828 L277.2379150390625,64.9207992553711 L278.635986328125,62.82865905761719 L279.74127197265625,60.53820037841797 L280.5809326171875,58.21393585205078 L281.178955078125,56.017269134521484 L281.56549072265625,54.0822868347168 L281.78961181640625,52.52510070800781 L281.86468505859375,51.40991973876953 L281.83294677734375,50.78298568725586 L281.74468994140625,50.678016662597656 L281.61669921875,51.09743118286133 L281.45928955078125,52.034271240234375 L281.30841064453125,53.4459228515625 L281.1700439453125,55.23766326904297 L281.076904296875,57.28421401977539 L281.05242919921875,59.486358642578125 L281.09716796875,61.69355392456055 L281.20263671875,63.76157760620117 L281.32366943359375,65.33123016357422 L281.417236328125,66.26146697998047 M283.8753662109375,66.84093475341797 L284.19427490234375,66.79438781738281 L284.84228515625,66.65274047851562 L285.84954833984375,66.3824234008789 L287.12713623046875,65.97111511230469 L288.58154296875,65.43809509277344 L290.09381103515625,64.80345916748047 L291.548828125,64.08475494384766 L292.8232421875,63.3160514831543 L293.7982177734375,62.535308837890625 L294.3699951171875,61.78712844848633 L294.46295166015625,61.12898254394531 L294.05859375,60.6250114440918 L293.1512451171875,60.33181381225586 L291.8077392578125,60.31279373168945 L290.1600341796875,60.589969635009766 L288.41461181640625,61.1634521484375 L286.800048828125,62.001197814941406 L285.55487060546875,63.057777404785156 L284.8394775390625,64.25298309326172 L284.79473876953125,65.49433898925781 L285.5120849609375,66.66260528564453 L287.00860595703125,67.65291595458984 L289.18634033203125,68.38546752929688 L291.947509765625,68.80996704101562 L295.19171142578125,68.90214538574219 L298.04107666015625,68.80162048339844 L299.9952392578125,68.64173126220703 " fill="none" stroke="white" stroke-linecap="round" stroke-width="1" /></svg>