<?xml version="1.0" encoding="utf-8" ?>
<svg baseProfile="full" height="100%" version="1.1" viewBox="0,0,300,120" width="100%" xmlns="http://www.w3.org/2000/svg" xmlns:ev="http://www.w3.org/2001/xml-events" xmlns:xlink="http://www.w3.org/1999/xlink"><defs /><rect fill="none" height="120" width="300" x="0" y="0" /><path d="M0,0 M52.05992126464844,46.0535888671875 L52.13066101074219,46.0377197265625 L52.22412872314453,46.14789581298828 L52.33168029785156,46.50567626953125 L52.424617767333984,47.23920822143555 L52.49668502807617,48.38795471191406 L52.55928039550781,49.98033142089844 L52.59750747680664,52.01622009277344 L52.59047317504883,54.46240997314453 L52.558658599853516,57.2333984375 L52.49728775024414,60.21373748779297 L52.391685485839844,63.22871780395508 L52.25624084472656,66.11911010742188 L52.097816467285156,68.74027252197266 L51.928585052490234,70.97248840332031 L51.80735778808594,72.74832916259766 L51.77709197998047,73.9351806640625 L51.84857177734375,74.4427719116211 L52.02567672729492,74.26605224609375 L52.22414016723633,73.75262451171875 L52.37039566040039,73.23393249511719 M61.10093688964844,46.078067779541016 L61.117156982421875,46.042213439941406 L61.12276077270508,46.228145599365234 L61.09881591796875,46.84531021118164 L61.00824737548828,48.04191207885742 L60.837501525878906,49.776859283447266 L60.593536376953125,51.94868469238281 L60.298728942871094,54.409698486328125 L60.0128173828125,57.04793930053711 L59.78156280517578,59.75688934326172 L59.614105224609375,62.41997528076172 L59.5021858215332,64.90193939208984 L59.39738464355469,67.06488800048828 L59.26593017578125,68.77346801757812 L59.100799560546875,69.961669921875 L58.944122314453125,70.63325500488281 L58.83180618286133,70.91159057617188 M49.44818115234375,62.973297119140625 L49.44578552246094,62.90278625488281 L49.65056610107422,62.80438995361328 L50.234039306640625,62.69916915893555 L51.332088470458984,62.618553161621094 L52.936744689941406,62.58032989501953 L54.9482421875,62.57783508300781 L57.189598083496094,62.59437561035156 L59.532981872558594,62.63023376464844 L61.79657745361328,62.673187255859375 L63.833526611328125,62.7145881652832 L65.33132934570312,62.752685546875 L66.19586181640625,62.77778625488281 M67.92649841308594,67.5872802734375 L68.10176086425781,67.65022277832031 L68.54106140136719,67.69027709960938 L69.34030151367188,67.64434814453125 L70.50382995605469,67.42654418945312 L71.98681640625,67.00707244873047 L73.71017456054688,66.38404083251953 L75.52603149414062,65.58039093017578 L77.27487182617188,64.6236801147461 L78.78302764892578,63.5830078125 L79.86721801757812,62.5239143371582 L80.40171813964844,61.536346435546875 L80.32022094726562,60.7215461730957 L79.56332397460938,60.1724853515625 L78.16336059570312,59.97840118408203 L76.21588134765625,60.21075439453125 L73.90287780761719,60.879554748535156 L71.48097229003906,61.9360237121582 L69.2605972290039,63.29043197631836 L67.48910522460938,64.80353546142578 L66.38597106933594,66.34361267089844 L66.06776428222656,67.77935791015625 L66.58831787109375,68.98600769042969 L67.92163848876953,69.865966796875 L69.99916076660156,70.37181854248047 L72.62309265136719,70.50311279296875 L75.53521728515625,70.33322143554688 L78.40111541748047,69.97046661376953 L80.92131042480469,69.50028991699219 L82.87969970703125,68.98941802978516 L84.21937561035156,68.4771499633789 L84.96544647216797,68.0638427734375 L85.28193664550781,67.80012512207031 M85.25180053710938,61.1474494934082 L85.44947052001953,61.39979553222656 L85.84645080566406,61.8951416015625 L86.48287963867188,62.65195083618164 L87.3282699584961,63.604164123535156 L88.38349914550781,64.70535278320312 L89.62507629394531,65.8598403930664 L91.00112915039062,66.97789001464844 L92.47601318359375,67.92378997802734 L93.9874267578125,68.58025360107422 L95.44126892089844,68.88407897949219 L96.57443237304688,68.9324951171875 L97.27140808105469,68.85517883300781 M102.3792724609375,61.16509246826172 L102.4154052734375,61.15021514892578 L102.37159729003906,61.29921340942383 L102.11836242675781,61.75328826904297 L101.53923034667969,62.63514709472656 L100.58978271484375,63.948448181152344 L99.29507446289062,65.6533432006836 L97.74098205566406,67.67157745361328 L96.04158020019531,69.9271469116211 L94.31362915039062,72.29596710205078 L92.69180297851562,74.642822265625 L91.28211975097656,76.8095932006836 L90.24063873291016,78.61971282958984 L89.67596435546875,79.92150115966797 L89.60627746582031,80.66267395019531 L89.81886291503906,80.94892883300781 L90.09220886230469,80.96991729736328 M108.87100219726562,70.06989288330078 L108.86079406738281,70.29230499267578 L108.84130859375,70.79902648925781 L108.79238891601562,71.62950897216797 L108.68232727050781,72.72332000732422 L108.46138000488281,73.97151184082031 L108.08831787109375,75.26536560058594 L107.54609680175781,76.52986907958984 L106.85507202148438,77.70046997070312 L106.07901000976562,78.6889419555664 L105.31222534179688,79.42308044433594 L104.71871948242188,79.85870361328125 L104.3701171875,80.04220581054688 M130.28030395507812,45.0 L130.38087463378906,45.01700973510742 L130.52284240722656,45.212799072265625 L130.6495361328125,45.73734664916992 L130.6805419921875,46.704505920410156 L130.58216857910156,48.13893127441406 L130.36708068847656,50.00262451171875 L130.07696533203125,52.249088287353516 L129.74234008789062,54.80467987060547 L129.3751983642578,57.57415771484375 L128.97727966308594,60.42144775390625 L128.5631561279297,63.20405960083008 L128.1578369140625,65.73963165283203 L127.79582214355469,67.88141632080078 L127.51309204101562,69.53759765625 L127.33198547363281,70.60045623779297 L127.24288940429688,71.13005065917969 M123.33786010742188,60.44268798828125 L123.57855224609375,60.39133071899414 L124.17807006835938,60.332725524902344 L125.25346374511719,60.28759765625 L126.77120971679688,60.26395034790039 L128.61178588867188,60.23501968383789 L130.61024475097656,60.16485595703125 L132.61439514160156,60.04008865356445 L134.5157012939453,59.8140754699707 L136.22132873535156,59.44832229614258 L137.64263916015625,58.91897201538086 L138.62619018554688,58.39444351196289 L139.1581268310547,58.001182556152344 M139.96229553222656,47.19520568847656 L140.1144256591797,47.32334899902344 L140.33303833007812,47.72321319580078 L140.54515075683594,48.538394927978516 L140.65353393554688,49.84931182861328 L140.62332153320312,51.64994812011719 L140.47366333007812,53.87625503540039 L140.24359130859375,56.41765594482422 L139.96231079101562,59.12026596069336 L139.64060974121094,61.80143737792969 L139.30235290527344,64.27813720703125 L138.95550537109375,66.37875366210938 L138.62680053710938,67.98555755615234 L138.35154724121094,69.0443344116211 L138.1525115966797,69.55192565917969 L138.06149291992188,69.52461242675781 L138.13661193847656,69.01522827148438 L138.41259765625,68.07503509521484 L138.9158477783203,66.80160522460938 L139.66363525390625,65.3235855102539 L140.629638671875,63.79998779296875 L141.76541137695312,62.348876953125 L143.01925659179688,61.097145080566406 L144.32032775878906,60.129356384277344 L145.62506103515625,59.530452728271484 L146.89544677734375,59.35633087158203 L148.0816650390625,59.650596618652344 L149.1171875,60.38291549682617 L149.92689514160156,61.513187408447266 L150.43988037109375,62.935306549072266 L150.64517211914062,64.51956939697266 L150.5895233154297,66.11748504638672 L150.37930297851562,67.56682586669922 L150.14443969726562,68.71485900878906 L149.98831176757812,69.4889144897461 L149.92950439453125,69.8957290649414 L149.93524169921875,70.03731536865234 M154.42068481445312,66.5567626953125 L154.6463165283203,66.6358871459961 L155.1566162109375,66.72227478027344 L156.01661682128906,66.7465591430664 L157.19944763183594,66.62059020996094 L158.63436889648438,66.31407928466797 L160.2064666748047,65.80071258544922 L161.7853240966797,65.10163116455078 L163.24464416503906,64.25364685058594 L164.43775939941406,63.31339645385742 L165.23287963867188,62.35163879394531 L165.52774047851562,61.46559524536133 L165.25271606445312,60.744140625 L164.40567016601562,60.289424896240234 L163.06773376464844,60.183963775634766 L161.35482788085938,60.482181549072266 L159.451416015625,61.17494201660156 L157.583984375,62.20584487915039 L155.95318603515625,63.48221206665039 L154.72750854492188,64.90528106689453 L154.04551696777344,66.37431335449219 L153.98367309570312,67.78996276855469 L154.59950256347656,69.0317611694336 L155.90541076660156,69.98079681396484 L157.82894897460938,70.54965209960938 L160.19668579101562,70.7116928100586 L162.7767333984375,70.4917221069336 L165.30613708496094,69.95355224609375 L167.56866455078125,69.14511108398438 L169.4207000732422,68.12560272216797 L170.80279541015625,66.96944427490234 L171.71742248535156,65.78975677490234 L172.23143005371094,64.71731567382812 L172.4340057373047,63.8715934753418 L172.43609619140625,63.3171501159668 L172.33203125,63.09845733642578 L172.1785430908203,63.22810745239258 L172.0064697265625,63.70743179321289 L171.84298706054688,64.50733184814453 L171.7094268798828,65.53971099853516 L171.6343536376953,66.66263580322266 L171.6201171875,67.71443176269531 L171.65025329589844,68.5569839477539 L171.68272399902344,69.08829498291016 L171.69992065429688,69.24386596679688 L171.69532775878906,68.9826889038086 L171.68321228027344,68.29122161865234 L171.6736297607422,67.20072937011719 L171.68734741210938,65.81877136230469 L171.72207641601562,64.29647827148438 L171.8098907470703,62.7913932800293 L171.9561309814453,61.437416076660156 L172.18838500976562,60.31698226928711 L172.51626586914062,59.46955490112305 L172.9818572998047,58.912635803222656 L173.62986755371094,58.65325927734375 L174.52557373046875,58.68221664428711 L175.6766815185547,58.971466064453125 L177.08013916015625,59.461891174316406 L178.6667938232422,60.06196212768555 L180.40646362304688,60.66900634765625 L182.19369506835938,61.188838958740234 L183.90716552734375,61.56269454956055 L185.22085571289062,61.77527618408203 L186.00535583496094,61.8626594543457 M182.07188415527344,65.0316390991211 L182.5294952392578,65.160888671875 L183.4077911376953,65.28671264648438 L184.70542907714844,65.32300567626953 L186.29405212402344,65.18267059326172 L188.06155395507812,64.86260986328125 L189.85964965820312,64.3825454711914 L191.5496368408203,63.774078369140625 L192.98275756835938,63.07734680175781 L194.0100860595703,62.33605194091797 L194.53836059570312,61.61964797973633 L194.47393798828125,61.002716064453125 L193.7645263671875,60.57915496826172 L192.41549682617188,60.450416564941406 L190.51234436035156,60.69337463378906 L188.24232482910156,61.316917419433594 L185.90037536621094,62.27523422241211 L183.80323791503906,63.47490692138672 L182.23397827148438,64.80976104736328 L181.41188049316406,66.17884063720703 L181.46791076660156,67.478759765625 L182.4395751953125,68.6094970703125 L184.25820922851562,69.48977661132812 L186.71360778808594,70.08550262451172 L189.50001525878906,70.37332916259766 L192.25161743164062,70.3675765991211 L194.6619110107422,70.11492156982422 L196.35874938964844,69.78948211669922 L197.2879180908203,69.52273559570312 M202.16021728515625,47.221614837646484 L202.2944793701172,47.37693786621094 L202.40103149414062,47.80250549316406 L202.3519744873047,48.59116744995117 L202.0343780517578,49.74457550048828 L201.48104858398438,51.183982849121094 L200.79718017578125,52.8195686340332 L200.116943359375,54.5285530090332 L199.62413024902344,56.21403503417969 L199.4366455078125,57.75095748901367 L199.5986785888672,59.02729797363281 L199.9258575439453,59.894187927246094 L200.23907470703125,60.3558349609375 M214.11082458496094,64.11504364013672 L213.8183135986328,63.81009292602539 L213.16397094726562,63.3159065246582 L212.0545196533203,62.7116813659668 L210.52479553222656,62.14263916015625 L208.7058563232422,61.66648864746094 L206.815673828125,61.30546951293945 L205.1302032470703,61.06297302246094 L203.89793395996094,60.97114562988281 L203.28273010253906,61.06647872924805 L203.35333251953125,61.37704086303711 L204.09664916992188,61.904239654541016 L205.4646759033203,62.6256217956543 L207.340087890625,63.49895095825195 L209.5480499267578,64.48583984375 L211.8741455078125,65.5363540649414 L214.06298828125,66.58334350585938 L215.88589477539062,67.55265045166016 L217.20143127441406,68.38760375976562 L217.91893005371094,69.05554962158203 L217.9975128173828,69.55207824707031 L217.45420837402344,69.89674377441406 L216.29470825195312,70.09391021728516 L214.60079956054688,70.1455078125 L212.51039123535156,70.0672378540039 L210.232177734375,69.89297485351562 L207.97506713867188,69.6585693359375 L205.9442596435547,69.40731811523438 L204.30772399902344,69.16014862060547 L203.19589233398438,68.9230728149414 L202.63462829589844,68.70906829833984 L202.4849090576172,68.5508804321289 L202.54212951660156,68.45823669433594 M241.17047119140625,48.242515563964844 L241.32823181152344,48.188148498535156 L241.52989196777344,48.24494552612305 L241.70809936523438,48.57484436035156 L241.7758026123047,49.339378356933594 L241.73974609375,50.609825134277344 L241.61184692382812,52.373695373535156 L241.4136199951172,54.54948806762695 L241.15924072265625,57.03373718261719 L240.8682861328125,59.67741012573242 L240.55560302734375,62.310813903808594 L240.2298126220703,64.76023864746094 L239.85400390625,66.85992431640625 L239.36465454101562,68.4810562133789 L238.68704223632812,69.57576751708984 L237.75228881835938,70.1195068359375 L236.54660034179688,70.13945770263672 L235.11123657226562,69.68404388427734 L233.544189453125,68.83223724365234 L231.97889709472656,67.69588470458984 L230.5595245361328,66.44462585449219 L229.37863159179688,65.19295501708984 L228.52804565429688,64.0337142944336 L228.0307159423828,62.99258804321289 L227.96905517578125,62.07320785522461 L228.3634490966797,61.29188919067383 L229.18435668945312,60.70207214355469 L230.06007385253906,60.33076477050781 L230.7292022705078,60.160369873046875 M242.91354370117188,61.34357452392578 L242.7552032470703,61.45781707763672 L242.51182556152344,61.81062698364258 L242.23175048828125,62.50096893310547 L242.02798461914062,63.53835678100586 L241.97874450683594,64.8370361328125 L242.1412811279297,66.2408218383789 L242.55648803710938,67.57906341552734 L243.26593017578125,68.7090835571289 L244.2586669921875,69.50324249267578 L245.5220489501953,69.87107849121094 L246.98748779296875,69.78113555908203 L248.5417022705078,69.2306137084961 L250.05491638183594,68.2740707397461 L251.4127960205078,67.02359008789062 L252.51368713378906,65.61927795410156 L253.3280029296875,64.23915100097656 L253.8550567626953,63.05558776855469 L254.14332580566406,62.169281005859375 L254.26734924316406,61.64025115966797 L254.27342224121094,61.50901412963867 L254.187744140625,61.80271911621094 L254.0249481201172,62.554779052734375 L253.79457092285156,63.7271614074707 L253.586181640625,65.228515625 L253.50592041015625,66.87935638427734 L253.61387634277344,68.49402618408203 L253.8230743408203,69.73255920410156 L254.02586364746094,70.47248840332031 M266.5611572265625,67.97673797607422 L266.6552734375,67.44475555419922 L266.7041931152344,66.60198974609375 L266.5931701660156,65.58287811279297 L266.1968994140625,64.64383697509766 L265.4722595214844,63.909332275390625 L264.42449951171875,63.478965759277344 L263.10662841796875,63.41484451293945 L261.6339111328125,63.75505447387695 L260.166015625,64.49444580078125 L258.8885192871094,65.56254577636719 L257.97210693359375,66.85572814941406 L257.5584716796875,68.21598052978516 L257.71588134765625,69.46123504638672 L258.4674377441406,70.3870849609375 L259.7487487792969,70.83301544189453 L261.4385070800781,70.68589782714844 L263.37640380859375,69.9169921875 L265.40032958984375,68.56008911132812 L267.366943359375,66.70693969726562 L269.17645263671875,64.48066711425781 L270.75518798828125,62.03482437133789 L272.06915283203125,59.53510284423828 L273.10687255859375,57.161537170410156 L273.86468505859375,55.08524703979492 L274.36004638671875,53.45795440673828 L274.61395263671875,52.39853286743164 L274.656982421875,51.97161102294922 L274.52911376953125,52.19243240356445 L274.26129150390625,53.04682540893555 L273.8892822265625,54.483428955078125 L273.4544677734375,56.406776428222656 L273.021484375,58.6894645690918 L272.65570068359375,61.14058303833008 L272.43011474609375,63.54880905151367 L272.389892578125,65.73374938964844 L272.6265869140625,67.54562377929688 L273.16217041015625,68.89180755615234 L273.9747314453125,69.75586700439453 L274.76959228515625,70.19610595703125 L275.3416748046875,70.34515380859375 M277.02313232421875,67.35697937011719 L277.28887939453125,67.21355438232422 L277.85369873046875,66.92750549316406 L278.76678466796875,66.48143005371094 L279.98443603515625,65.9007797241211 L281.42254638671875,65.19306945800781 L282.94293212890625,64.38262176513672 L284.37017822265625,63.499080657958984 L285.536865234375,62.583892822265625 L286.28741455078125,61.693092346191406 L286.50115966796875,60.90315628051758 L286.09857177734375,60.29800033569336 L285.078125,59.97484588623047 L283.53131103515625,60.01505661010742 L281.68853759765625,60.45557403564453 L279.85699462890625,61.28013610839844 L278.34552001953125,62.42076110839844 L277.41192626953125,63.768131256103516 L277.22393798828125,65.21085357666016 L277.83551025390625,66.62556457519531 L279.3311767578125,67.90992736816406 L281.78778076171875,69.0041275024414 L284.2916259765625,69.7752914428711 L286.19281005859375,70.20542907714844 " fill="none" stroke="rgb(80,94,161)" stroke-linecap="round" stroke-width="1" /></svg>